<?xml version="1.0" encoding="UTF-8"?>
<svg xmlns="http://www.w3.org/2000/svg" version="1.1" viewBox="0 0 482 126">
  <defs>
    <style>
      .cls-1 {
        fill: #333;
      }

      .cls-2 {
        fill: #fff;
      }

      .cls-3 {
        fill: #007ca8;
      }

      .cls-4 {
        fill: #333;
      }
    </style>
  </defs>
  <!-- Generator: Adobe Illustrator 28.7.2, SVG Export Plug-In . SVG Version: 1.2.0 Build 154)  -->
  <g>
    <g id="Layer_1">
      <rect class="cls-2" width="482" height="126"/>
      <g>
        <g>
          <path class="cls-1" d="M45.5,53.5h26.4c12.7,0,19.9,5,19.9,13.5s-3.7,11.1-14.5,12.8c9.2,1.2,11.8,5.4,13,13l1.5,9,6.2.6v4.4c-3.9.9-5.2,1.1-8.9,1.1-6.9,0-11-1.9-11.8-8.3l-1.5-9.4c-.8-5.4-2.8-8-7.7-8h-2.9c0,7,0,13.2.2,19.5l6.3.6v4.4h-26.1v-4.4l6.1-.6c.2-6.6.2-13.3.2-20.1v-3c0-6.7,0-13.5-.2-20.1l-6.1-.6v-4.4ZM65.3,58.3c-.2,6.7-.2,13.6-.2,19.6h3.1c8,0,10.5-4.7,10.5-9.9s-3.6-9.7-10.2-9.7h-3.2Z"/>
          <path class="cls-3" d="M116,55.7c-.7,0-1.4-.3-2.3-.8-.2-.1-.4-.2-.6-.3-.6-.2-1-.7-1.4-1,0,0,0,0-.1-.1l-3.5-1.3-12.4-7.2-6.2-2.3-3-2.6-3-1.2h-.8c0,0-.7-.7-.7-.7h-1.1s-1.2-1.2-1.2-1.2l-1.9-.9-4.6-2.9-3.6-1.6-2.5,1.3-1.6.5-3.7,2.4-2.3.5-4,3.3-11.8,4.7-2,2.2-3.9,2.2-3.1,1.1-2.6,2.1-2.7,1.1-1.2,1-1.8.6h-.8c-.3,0-.7,0-.9,0-.2,0-.3,0-.5,0-.5,0-.9-.2-1.2-.4-.3-.2-.6-.4-1.1-.8h0c0-.1-.2-.2-.2-.2l-.5-.3-.4-.9c-.4-1-.5-1.1-.5-1.2-.4-1.3-.4-2-.3-2.9,0-.1,0-.2,0-.4.2-2.1,1.2-3.9,2.7-4.6l1.6-.8,2-1.4,2.7-.9,2.1-.8,8.3-5.7,4.8-1.3,1-1.6,7.1-2.7,9.5-5.9,6-3.6c1.1-.6,2.3-.7,3.4,0l.3.2,3.4,2.7,2.1-.3,4.9,3.3,5.3,3.9,6.5,2.1,5.2,4.3,6,2.1.2.8,7.1,2.9,6.7,4c1.7,1,2.5,3.4,2,5.8,0,.1,0,.2,0,.3h0c-.2.8-.3,1.2-.8,2.4-.7,1.7-2.1,2.7-3.6,2.8h-.2s0,0,0,0Z"/>
        </g>
        <g>
          <path class="cls-4" d="M108.2,100.4v7.5h-1.2v-7.5h-2.4v-1h6.1v1h-2.5Z"/>
          <path class="cls-4" d="M119.7,108l-.7-4.9c-.1-.9-.2-1.6-.3-2.1h0c0,.4-.2.9-.4,1.5l-1.8,5.5h-1.2l-1.7-5.1c-.2-.7-.4-1.3-.5-1.9h0c0,.7-.1,1.4-.2,2.2l-.6,4.8h-1.2l1.2-8.5h1.4l1.8,5.4c.2.5.3,1.1.5,1.7h0c.2-.6.3-1.1.5-1.6l1.8-5.4h1.4l1.3,8.5h-1.2Z"/>
        </g>
      </g>
    </g>
  </g>
</svg>