<?xml version="1.0" standalone="no"?>
<!DOCTYPE svg PUBLIC "-//W3C//DTD SVG 20010904//EN"
 "http://www.w3.org/TR/2001/REC-SVG-20010904/DTD/svg10.dtd">
<svg version="1.0" xmlns="http://www.w3.org/2000/svg"
 width="417.000000pt" height="126.000000pt" viewBox="0 0 417.000000 126.000000"
 preserveAspectRatio="xMidYMid meet">

<g transform="translate(0.000000,126.000000) scale(0.100000,-0.100000)"
fill="#000000" stroke="none">
<path d="M446 1023 c18 -70 21 -78 36 -81 11 -2 18 8 23 35 l8 38 15 -37 c20
-50 35 -48 50 7 14 55 15 65 3 65 -6 0 -14 -19 -19 -42 l-9 -43 -12 43 c-15
52 -36 55 -46 6 -7 -39 -21 -36 -27 5 -1 14 -9 26 -16 29 -10 3 -11 -3 -6 -25z"/>
<path d="M610 995 c0 -30 5 -55 10 -55 6 0 10 9 10 21 0 13 8 23 22 27 l22 5
-22 8 c-31 12 -27 37 6 42 22 3 20 4 -10 6 l-38 1 0 -55z"/>
<path d="M700 995 c0 -30 5 -55 10 -55 6 0 10 9 10 20 0 13 7 20 19 20 26 0
44 25 36 50 -5 15 -15 20 -41 20 l-34 0 0 -55z m48 22 c2 -10 -3 -17 -12 -17
-10 0 -16 9 -16 21 0 24 23 21 28 -4z"/>
<path d="M2425 630 c0 -234 1 -329 2 -213 2 117 2 309 0 425 -1 117 -2 22 -2
-212z"/>
<path d="M3010 971 l-255 -77 -3 -38 c-3 -31 0 -37 11 -33 8 3 130 40 271 82
l256 76 256 -76 c141 -42 263 -79 271 -82 11 -4 14 2 11 33 l-3 39 -260 77
c-143 43 -269 77 -280 77 -11 -1 -135 -35 -275 -78z"/>
<path d="M344 902 c-25 -19 -49 -62 -36 -62 8 0 33 26 61 63 17 22 2 22 -25
-1z"/>
<path d="M851 903 c28 -37 53 -63 61 -63 13 0 -11 43 -36 62 -27 23 -42 23
-25 1z"/>
<path d="M275 860 c-8 -16 -15 -47 -15 -70 l0 -41 39 32 c53 42 63 68 16 39
-35 -21 -35 -21 -35 -1 0 11 4 31 10 45 13 35 4 33 -15 -4z"/>
<path d="M930 864 c6 -14 10 -34 10 -45 0 -20 0 -20 -35 1 -47 29 -37 3 16
-39 l39 -32 0 41 c0 23 -7 54 -15 70 -19 37 -28 39 -15 4z"/>
<path d="M654 834 c-33 -78 -45 -214 -20 -214 18 0 29 56 15 81 -8 16 -6 28
11 57 l22 37 -22 -20 -23 -20 8 25 c4 14 13 40 21 58 7 17 11 32 8 32 -3 0
-12 -16 -20 -36z"/>
<path d="M747 841 c-22 -38 -22 -41 6 -40 21 0 21 1 2 9 -19 8 -19 9 3 9 13 1
22 7 22 16 0 8 0 18 1 22 2 20 -19 10 -34 -16z"/>
<path d="M445 819 c-5 -22 -3 -34 6 -40 10 -6 11 -9 2 -9 -7 0 -13 -5 -13 -11
0 -5 5 -7 10 -4 6 3 10 2 10 -4 0 -5 -6 -12 -12 -14 -13 -5 15 -11 38 -8 6 1
11 -16 11 -40 0 -34 -2 -38 -11 -23 -5 11 -10 25 -11 33 0 8 -10 15 -22 16
-13 1 -31 9 -40 17 -10 9 -28 21 -41 27 -19 10 -17 4 14 -36 20 -26 40 -58 45
-70 5 -13 14 -35 21 -50 6 -16 10 -32 9 -37 -1 -5 6 -5 16 -1 10 4 69 10 131
13 86 3 112 8 112 18 0 21 -175 19 -214 -1 -16 -9 -31 -13 -33 -11 -10 10 59
36 95 36 l39 0 -7 45 c-4 25 -5 68 -2 94 2 27 0 56 -5 66 -8 14 -10 11 -11
-14 0 -17 -5 -38 -11 -48 -8 -14 -9 -6 -6 32 4 36 3 44 -4 29 -5 -12 -17 -24
-26 -27 -9 -4 -13 -3 -10 3 3 5 -2 18 -12 29 -13 15 -19 17 -25 8 -6 -9 -8 -9
-8 1 0 26 -29 11 -35 -19z m45 -71 c0 -5 -4 -8 -10 -8 -5 0 -10 10 -10 23 0
18 2 19 10 7 5 -8 10 -18 10 -22z m30 28 c0 -11 -19 -15 -25 -6 -3 5 1 10 9
10 9 0 16 -2 16 -4z m0 -36 c0 -5 -4 -10 -10 -10 -5 0 -10 5 -10 10 0 6 5 10
10 10 6 0 10 -4 10 -10z m10 -30 c0 -5 -4 -10 -10 -10 -5 0 -10 5 -10 10 0 6
5 10 10 10 6 0 10 -4 10 -10z m0 -30 c0 -5 -5 -10 -11 -10 -5 0 -7 5 -4 10 3
6 8 10 11 10 2 0 4 -4 4 -10z m10 -30 c0 -5 -4 -10 -10 -10 -5 0 -10 5 -10 10
0 6 5 10 10 10 6 0 10 -4 10 -10z"/>
<path d="M3160 645 l0 -205 35 0 35 0 0 205 0 205 -35 0 -35 0 0 -205z"/>
<path d="M3446 828 c6 -39 44 -362 44 -375 0 -8 14 -13 35 -13 42 0 41 -20 12
220 l-23 185 -35 3 c-33 3 -36 1 -33 -20z"/>
<path d="M226 804 c-8 -20 -8 -118 0 -138 5 -12 14 -6 40 25 19 23 34 45 34
50 0 14 -37 -8 -49 -29 -9 -14 -11 -11 -13 18 -1 19 -1 47 0 63 2 30 -3 35
-12 11z"/>
<path d="M984 800 c3 -14 3 -42 -1 -64 -4 -29 -8 -35 -15 -22 -11 19 -48 41
-48 27 0 -5 15 -28 34 -50 33 -40 35 -40 42 -19 11 34 7 115 -6 135 -10 16
-11 14 -6 -7z"/>
<path d="M2840 615 l0 -175 35 0 35 0 0 175 0 175 -35 0 -35 0 0 -175z"/>
<path d="M739 738 c-16 -18 -29 -37 -29 -42 0 -6 3 -6 8 0 4 5 20 24 36 42 17
17 26 32 22 32 -4 0 -20 -15 -37 -32z"/>
<path d="M1500 700 c0 -56 3 -70 15 -70 12 0 15 14 15 70 0 56 -3 70 -15 70
-12 0 -15 -14 -15 -70z"/>
<path d="M1630 751 c0 -15 -8 -21 -32 -23 -32 -3 -33 -5 -33 -48 l0 -45 43 -1
42 -2 0 69 c0 39 -4 69 -10 69 -5 0 -10 -9 -10 -19z m-5 -71 c0 -16 -6 -26
-18 -28 -19 -4 -32 20 -23 44 9 25 41 13 41 -16z"/>
<path d="M2140 751 c0 -15 -8 -21 -32 -23 -32 -3 -33 -5 -33 -48 l0 -45 43 -1
42 -2 0 69 c0 39 -4 69 -10 69 -5 0 -10 -9 -10 -19z m-5 -71 c0 -15 -6 -26
-16 -28 -19 -3 -31 21 -22 43 9 25 38 13 38 -15z"/>
<path d="M1118 695 c20 -82 43 -89 62 -17 l12 47 15 -48 c19 -64 42 -61 60 8
15 61 16 75 3 75 -6 0 -12 -6 -14 -12 -2 -7 -8 -29 -13 -48 l-10 -35 -13 48
c-16 61 -39 60 -56 -3 l-11 -45 -13 48 c-7 26 -18 47 -25 47 -9 0 -9 -15 3
-65z"/>
<path d="M1730 695 c0 -51 3 -65 15 -65 9 0 15 9 15 25 0 20 5 25 25 25 31 0
33 17 3 22 -34 5 -37 38 -4 38 14 0 26 5 26 10 0 6 -18 10 -40 10 l-40 0 0
-65z"/>
<path d="M654 729 c-3 -6 -2 -15 3 -20 5 -5 9 -1 9 11 0 23 -2 24 -12 9z"/>
<path d="M795 720 c-4 -6 -11 -7 -17 -4 -7 5 -9 2 -5 -8 4 -12 1 -14 -14 -11
-12 4 -19 0 -19 -9 0 -37 34 -29 56 13 13 27 13 42 -1 19z"/>
<path d="M1298 705 c-17 -37 3 -75 40 -75 35 0 52 16 52 50 0 34 -17 50 -52
50 -21 0 -32 -7 -40 -25z m66 -10 c8 -21 -3 -45 -20 -45 -18 0 -28 24 -20 45
3 8 12 15 20 15 7 0 16 -7 20 -15z"/>
<path d="M1420 678 c0 -26 5 -48 10 -48 6 0 10 11 10 25 0 14 9 34 20 45 26
26 25 29 -10 28 -29 -1 -30 -3 -30 -50z"/>
<path d="M1842 718 c-7 -7 -12 -24 -12 -38 0 -33 17 -50 50 -50 33 0 50 17 50
50 0 14 -5 31 -12 38 -15 15 -61 15 -76 0z m56 -35 c-2 -17 -10 -29 -20 -31
-14 -3 -18 3 -18 27 0 25 4 31 21 31 16 0 20 -5 17 -27z"/>
<path d="M1962 718 c-7 -7 -12 -24 -12 -38 0 -34 17 -50 52 -50 37 0 57 38 40
75 -13 27 -58 35 -80 13z m53 -38 c0 -28 -29 -40 -38 -15 -9 22 3 46 22 43 10
-2 16 -13 16 -28z"/>
<path d="M682 681 c-15 -42 -15 -61 -2 -61 17 0 32 52 22 74 -8 18 -10 17 -20
-13z"/>
<path d="M191 657 c-1 -41 36 -125 48 -111 13 16 43 104 39 116 -2 6 -14 -8
-26 -32 l-21 -43 -12 29 c-6 16 -15 40 -19 54 -7 22 -8 21 -9 -13z"/>
<path d="M1022 679 c-1 -9 -9 -33 -18 -54 l-15 -37 -22 43 c-30 62 -34 25 -4
-42 l24 -54 22 43 c15 29 21 56 18 80 -2 20 -4 30 -5 21z"/>
<path d="M278 564 c-5 -4 -8 -25 -8 -46 0 -21 -3 -38 -6 -38 -4 0 -22 17 -40
38 -36 40 -47 26 -16 -21 14 -20 77 -77 86 -77 1 0 -5 103 -7 128 -1 13 -5 20
-9 16z"/>
<path d="M928 495 c-2 -41 -3 -75 -2 -75 9 0 72 57 86 77 31 47 20 61 -16 21
-18 -21 -36 -38 -40 -38 -3 0 -6 18 -6 39 0 73 -18 53 -22 -24z"/>
<path d="M1120 500 c0 -65 15 -98 22 -48 2 13 11 24 23 26 51 10 64 65 19 82
-58 22 -64 17 -64 -60z m60 25 c0 -19 -20 -29 -32 -17 -15 15 -2 43 17 36 8
-3 15 -12 15 -19z"/>
<path d="M463 542 c-31 -17 -29 -17 105 -14 146 3 167 6 157 22 -4 6 -53 10
-118 10 -86 -1 -119 -5 -144 -18z"/>
<path d="M1230 478 c0 -26 5 -48 10 -48 6 0 10 11 10 25 0 14 9 34 20 45 26
26 25 29 -10 28 -29 -1 -30 -3 -30 -50z"/>
<path d="M1308 505 c-17 -37 3 -75 40 -75 35 0 52 16 52 50 0 34 -17 50 -52
50 -21 0 -32 -7 -40 -25z m66 -10 c8 -21 -3 -45 -20 -45 -8 0 -17 7 -20 15 -8
21 2 45 20 45 7 0 16 -7 20 -15z"/>
<path d="M1422 498 c3 -18 1 -46 -5 -61 -13 -39 9 -62 52 -52 36 8 45 18 36
45 -5 14 -15 20 -38 20 -33 0 -28 15 7 22 11 2 23 15 27 31 7 27 7 27 -38 27
l-45 0 4 -32z m48 2 c0 -11 -4 -20 -9 -20 -14 0 -23 18 -16 30 10 17 25 11 25
-10z m10 -85 c0 -16 -35 -21 -44 -6 -8 12 4 21 26 21 10 0 18 -7 18 -15z"/>
<path d="M1520 479 c0 -37 4 -49 15 -49 9 0 15 9 15 24 0 35 10 56 26 56 8 0
14 4 14 9 0 5 -16 9 -35 9 l-35 0 0 -49z"/>
<path d="M1610 520 c0 -5 10 -9 21 -7 12 1 24 -3 26 -10 2 -7 -8 -13 -24 -15
-22 -2 -29 -9 -31 -30 -3 -27 -2 -28 42 -26 45 2 46 3 46 34 0 52 -9 64 -46
64 -19 0 -34 -4 -34 -10z m50 -49 c0 -14 -18 -23 -30 -16 -6 4 -8 11 -5 16 8
12 35 12 35 0z"/>
<path d="M1710 479 c0 -37 4 -49 15 -49 11 0 15 11 15 41 0 33 3 40 18 37 12
-2 18 -14 20 -41 2 -20 7 -37 12 -37 5 0 10 17 12 37 2 27 8 39 21 41 14 3 17
-4 17 -37 0 -30 4 -41 16 -41 12 0 14 10 12 48 l-3 47 -77 1 -78 2 0 -49z"/>
<path d="M1890 480 c0 -38 4 -50 15 -50 11 0 15 11 15 41 0 33 3 40 18 37 12
-2 18 -14 20 -41 4 -41 22 -52 22 -13 0 34 10 56 25 56 15 0 25 -22 25 -56 0
-13 5 -24 11 -24 6 0 9 19 7 48 l-3 47 -77 3 -78 2 0 -50z"/>
<path d="M2076 515 c-10 -26 -7 -60 6 -73 14 -14 78 -16 78 -2 0 6 -13 10 -30
10 -20 0 -30 5 -30 15 0 10 10 15 31 15 26 0 30 3 27 23 -2 17 -10 23 -39 25
-26 2 -38 -1 -43 -13z m64 -16 c0 -5 -9 -9 -20 -9 -19 0 -26 11 -14 23 8 8 34
-3 34 -14z"/>
<path d="M480 495 c30 -8 97 -14 148 -15 75 0 92 3 92 15 0 13 -23 15 -147 14
-146 -1 -147 -1 -93 -14z"/>
<path d="M480 459 c27 -14 57 -18 137 -19 58 0 104 4 108 10 9 15 -8 18 -150
23 l-130 5 35 -19z"/>
<path d="M321 448 c-1 -15 3 -38 9 -53 l10 -26 -48 27 c-26 15 -54 32 -62 38
-12 9 -12 6 1 -14 18 -28 62 -57 109 -70 31 -9 32 -8 25 18 -3 15 -15 45 -25
67 -17 37 -18 38 -19 13z"/>
<path d="M870 414 c-11 -31 -19 -60 -18 -65 4 -9 69 13 103 35 13 9 29 25 35
36 9 17 3 15 -40 -10 -28 -17 -53 -30 -55 -30 -3 0 -2 20 2 45 3 25 3 45 0 45
-3 0 -15 -25 -27 -56z"/>
<path d="M566 392 c17 -16 33 -35 36 -43 7 -20 14 -9 21 34 l6 37 -47 0 -46 0
30 -28z"/>
<path d="M650 417 c0 -2 10 -15 22 -28 16 -18 19 -19 15 -6 -4 10 -7 23 -7 28
0 5 -7 9 -15 9 -8 0 -15 -2 -15 -3z"/>
<path d="M706 393 c-6 -14 -5 -15 5 -6 7 7 10 15 7 18 -3 3 -9 -2 -12 -12z"/>
<path d="M395 370 c10 -19 23 -38 29 -42 20 -13 1 -15 -59 -8 -33 4 -62 6 -64
4 -9 -8 70 -34 101 -34 39 0 78 10 77 19 -1 3 -24 26 -51 51 l-51 45 18 -35z"/>
<path d="M787 353 c-27 -25 -46 -48 -43 -51 15 -14 104 -13 140 2 22 9 37 18
35 20 -2 2 -31 0 -64 -4 -33 -4 -62 -6 -64 -4 -2 2 4 10 13 19 18 19 39 55 34
60 -2 2 -25 -17 -51 -42z"/>
<path d="M3870 340 c0 -5 5 -10 10 -10 21 0 9 -18 -15 -24 -34 -9 -52 -48 -37
-80 11 -25 15 -26 97 -17 5 1 4 6 -3 13 -7 7 -12 38 -12 70 0 51 -2 58 -20 58
-11 0 -20 -4 -20 -10z m20 -79 c0 -21 -23 -44 -33 -34 -12 11 -8 51 6 56 17 6
27 -1 27 -22z"/>
<path d="M3945 340 c-8 -14 3 -30 21 -30 8 0 14 9 14 20 0 21 -24 28 -35 10z"/>
<path d="M2680 331 c0 -6 5 -11 10 -11 15 0 13 -97 -2 -103 -7 -3 1 -6 18 -6
29 -1 31 1 27 27 l-4 27 18 -27 c10 -16 26 -28 36 -28 16 0 16 2 1 25 -13 20
-14 28 -4 39 6 8 10 25 8 38 -3 20 -9 23 -55 26 -32 2 -53 -1 -53 -7z m80 -31
c0 -11 -7 -20 -15 -20 -8 0 -15 9 -15 20 0 11 7 20 15 20 8 0 15 -9 15 -20z"/>
<path d="M3273 315 c-6 -14 -7 -27 -2 -31 5 -3 9 -21 9 -40 0 -22 6 -37 15
-41 21 -7 32 4 17 19 -14 14 -16 54 -3 62 9 6 -8 56 -19 56 -3 0 -10 -11 -17
-25z"/>
<path d="M3480 330 c0 -5 5 -10 10 -10 15 0 13 -97 -2 -103 -7 -3 2 -6 21 -6
28 -1 32 1 21 14 -6 8 -8 19 -4 26 5 8 12 3 21 -15 8 -15 22 -26 34 -26 20 0
20 0 -1 27 -18 23 -19 28 -5 35 18 11 20 39 3 56 -14 14 -98 16 -98 2z m76
-21 c10 -17 -13 -36 -27 -22 -12 12 -4 33 11 33 5 0 12 -5 16 -11z"/>
<path d="M2832 294 c-34 -24 -27 -75 12 -89 24 -8 31 -6 47 14 30 37 23 72
-16 85 -12 3 -30 -1 -43 -10z m48 -38 c0 -23 -22 -41 -34 -29 -3 4 -6 17 -6
30 0 16 6 23 20 23 14 0 20 -7 20 -24z"/>
<path d="M2940 290 c-24 -24 -26 -53 -4 -74 32 -32 84 -8 84 39 0 26 -24 55
-46 55 -8 0 -23 -9 -34 -20z m50 -33 c0 -29 -7 -37 -26 -30 -14 5 -19 35 -7
46 14 15 33 6 33 -16z"/>
<path d="M3065 301 c-26 -4 -35 -9 -27 -14 6 -5 12 -21 12 -37 0 -15 -6 -31
-12 -33 -7 -3 1 -6 17 -6 30 -1 31 1 27 34 -3 27 -1 35 12 35 12 0 16 -9 16
-35 0 -27 4 -35 18 -35 13 0 17 8 17 32 0 17 6 33 13 35 8 3 12 -7 12 -31 0
-28 4 -36 18 -36 14 0 17 7 14 40 -5 48 -22 66 -51 51 -13 -7 -22 -8 -26 -1
-3 5 -9 9 -13 9 -4 -1 -25 -5 -47 -8z"/>
<path d="M3356 297 c-12 -9 -17 -23 -14 -46 4 -43 27 -59 62 -43 47 21 29 102
-21 102 -5 0 -17 -6 -27 -13z m48 -55 c-13 -20 -25 -20 -38 1 -7 10 -5 21 4
32 12 15 15 15 29 0 12 -12 13 -19 5 -33z"/>
<path d="M3628 299 c-22 -12 -24 -71 -4 -89 19 -15 58 -10 64 9 3 9 -1 11 -15
7 -12 -4 -25 0 -33 9 -11 13 -8 15 19 15 26 0 31 4 31 24 0 33 -29 45 -62 25z
m37 -19 c3 -5 -1 -10 -9 -10 -9 0 -16 5 -16 10 0 6 4 10 9 10 6 0 13 -4 16
-10z"/>
<path d="M3727 303 c-4 -3 -7 -13 -7 -21 0 -12 3 -12 15 -2 12 10 19 10 27 2
8 -8 7 -13 -5 -17 -9 -3 -24 -7 -33 -10 -9 -3 -14 -14 -12 -27 2 -19 10 -23
38 -24 41 -2 69 9 51 20 -6 4 -11 22 -11 41 0 21 -6 35 -16 39 -20 8 -39 8
-47 -1z m43 -61 c0 -13 -12 -22 -22 -16 -10 6 -1 24 13 24 5 0 9 -4 9 -8z"/>
<path d="M455 274 c-48 -16 -62 -24 -45 -25 44 -4 72 2 112 22 22 11 47 19 56
17 13 -3 9 -8 -13 -20 -37 -20 -74 -58 -55 -58 7 0 30 16 51 35 22 19 44 35
49 35 5 0 27 -16 49 -35 21 -19 44 -35 51 -35 19 0 -18 38 -55 58 -22 12 -26
17 -13 20 9 2 34 -6 56 -17 39 -20 67 -26 112 -22 17 1 1 10 -48 26 -99 31
-210 31 -307 -1z"/>
</g>
</svg>
